<svg width="26" height="28" viewBox="0 0 26 28" fill="none" xmlns="http://www.w3.org/2000/svg">
<path fill-rule="evenodd" clip-rule="evenodd" d="M25.2539 25.3415V3.09601C25.2539 1.78242 23.9579 0.71875 22.3608 0.71875H3.14699C1.54991 0.71875 0.253906 1.78242 0.253906 3.09601V25.3415C0.253906 26.6551 1.54991 27.7188 3.14699 27.7188H22.3608C23.9579 27.7188 25.2539 26.6551 25.2539 25.3415ZM22.9614 3.09601V25.3415C22.9614 25.614 22.6925 25.835 22.3608 25.835H3.14699C2.81534 25.835 2.54636 25.614 2.54636 25.3415V3.09601C2.54636 2.82349 2.81534 2.60247 3.14699 2.60247H22.3608C22.6925 2.60247 22.9614 2.82349 22.9614 3.09601Z" fill="white"/>
<path fill-rule="evenodd" clip-rule="evenodd" d="M12.7539 4.30664C10.6754 4.30664 8.98816 5.69306 8.98816 7.40097C8.98816 9.11013 10.6754 10.4965 12.7539 10.4965C14.8324 10.4965 16.5196 9.11013 16.5196 7.40097C16.5196 5.69306 14.8324 4.30664 12.7539 4.30664ZM12.7539 6.19036C13.567 6.19036 14.2272 6.73287 14.2272 7.40097C14.2272 8.07032 13.567 8.61283 12.7539 8.61283C11.9408 8.61283 11.2806 8.07032 11.2806 7.40097C11.2806 6.73287 11.9408 6.19036 12.7539 6.19036Z" fill="white"/>
<path fill-rule="evenodd" clip-rule="evenodd" d="M18.4254 14.5125V13.2931C18.4254 12.3538 17.7499 11.5011 16.7045 11.1206C15.9144 10.833 14.9653 10.4876 14.9653 10.4876C14.8186 10.4336 14.6612 10.406 14.5007 10.406H11.007C10.8297 10.406 10.654 10.4399 10.495 10.5052C10.495 10.5052 9.68808 10.8368 8.99882 11.1206C8.01764 11.5237 7.39868 12.3462 7.39868 13.2467V14.5125C7.39868 15.0324 7.91372 15.4544 8.54491 15.4544C9.17763 15.4544 9.69114 15.0324 9.69114 14.5125V13.2467C9.69114 13.0595 9.82104 12.8888 10.0243 12.8059L11.2775 12.2897H14.2577L15.7753 12.8423C15.9923 12.9214 16.1329 13.0985 16.1329 13.2931V14.5125C16.1329 15.0324 16.6464 15.4544 17.2792 15.4544C17.9119 15.4544 18.4254 15.0324 18.4254 14.5125Z" fill="#FCFCFC"/>
<path fill-rule="evenodd" clip-rule="evenodd" d="M9.26024 19.8246H16.2476C16.8804 19.8246 17.3939 19.4027 17.3939 18.8828C17.3939 18.3629 16.8804 17.9409 16.2476 17.9409H9.26024C8.62752 17.9409 8.11401 18.3629 8.11401 18.8828C8.11401 19.4027 8.62752 19.8246 9.26024 19.8246Z" fill="white"/>
<path fill-rule="evenodd" clip-rule="evenodd" d="M7.51329 23.4127H17.9944C18.6271 23.4127 19.1406 22.9907 19.1406 22.4708C19.1406 21.9509 18.6271 21.5289 17.9944 21.5289H7.51329C6.88058 21.5289 6.36707 21.9509 6.36707 22.4708C6.36707 22.9907 6.88058 23.4127 7.51329 23.4127Z" fill="white"/>
</svg>
